HIERARCHY
ROOT Hips
{
	OFFSET 0.00000 0.00000 0.00000
	CHANNELS 6 Xposition Yposition Zposition Yrotation Zrotation Xrotation 
	JOINT Lumbar
	{
		OFFSET 0 0 0
		CHANNELS 3 Zrotation Xrotation Yrotation
		JOINT Neck
		{
			OFFSET 0.00 0.2701 0.00
			CHANNELS 3 Zrotation Xrotation Yrotation
			End Site
			{
				OFFSET 0.00 0.1379 0.00
			}
		}
		JOINT RightShoulder
		{
			OFFSET 0.0119 0.2289 0.1181
			CHANNELS 3 Zrotation Xrotation Yrotation
			JOINT RightElbow
			{
				OFFSET 0.00 -0.1475 0.00
				CHANNELS 2 Zrotation Yrotation
				JOINT RightWrist
				{
					OFFSET 0.00 -0.1605 0.00
					CHANNELS 2 Zrotation Xrotation
					End Site
					{
						OFFSET 0.0040 -0.1068 0.0006
					}
				}
			}
		}
		JOINT LeftShoulder
		{
			OFFSET 0.0119 0.2289 -0.1181
			CHANNELS 3 Zrotation Xrotation Yrotation
			JOINT LeftElbow
			{
				OFFSET 0.00 -0.1475 0.00
				CHANNELS 2 Zrotation Yrotation
				JOINT LeftWrist
				{
					OFFSET 0.00 -0.1605 0.00
					CHANNELS 2 Zrotation Xrotation
					End Site
					{
						OFFSET 0.0040 -0.1068 -0.0006
					}
				}
			}
		}
	}
	JOINT RightHip
	{
		OFFSET 0.0316 -0.0424 0.0458
		CHANNELS 3 Zrotation Xrotation Yrotation
		JOINT RightKnee
		{
			OFFSET 0.00 -0.2438 0.00
			CHANNELS 1 Zrotation
			JOINT RightAnkle
			{
				OFFSET 0.00 -0.2449 0.00
				CHANNELS 3 Zrotation Xrotation Yrotation
				End Site
				{
					OFFSET 0.1237 -0.0542 0.0051
				}
			}
		}
	}
	JOINT LeftHip
	{
		OFFSET 0.0316 -0.0424 -0.0458
		CHANNELS 3 Zrotation Xrotation Yrotation
		JOINT LeftKnee
		{
			OFFSET 0.00 -0.2438 0.00
			CHANNELS 1 Zrotation
			JOINT LeftAnkle
			{
				OFFSET 0.00 -0.2449 0.00
				CHANNELS 3 Zrotation Xrotation Yrotation
				End Site
				{
					OFFSET 0.1237 -0.0542 -0.0051
				}
			}
		}
	}
}
MOTION
Frames: 16
Frame Time: 0.02
0.00099 0.00027 6e-05 27.83927 -16.62814 -3.5399 45.53609 -0.78946 -6.04013 -15.38115 3.11897 -1.27181 -24.45875 -7.0602 1.45707 27.47228 60.19437 -0.25362 -4.4397 -26.05453 7.93288 -2.70692 33.73563 -76.60888 7.41373 3.11312 27.91711 -2.15054 -4.64902 -20.25735 -6.71466 -3.75016 -4.06126 32.55403 6.21921 9.09467 -24.14249 -6.51566 1.64785 2.99481
0.00038 0.00014 0.00011 27.85402 -16.7223 -3.54772 45.46052 -0.76849 -6.15059 -15.19409 3.11422 -1.27266 -24.20978 -6.55117 -0.93134 27.28318 67.39972 1.58859 -3.2133 -25.92979 7.54203 -1.45024 33.59471 -82.4116 9.27552 2.10621 28.07584 -2.17594 -4.66188 -20.2688 -6.71627 -3.75039 -4.06115 32.72258 6.19262 9.08817 -24.15709 -6.51961 1.64021 2.99586
-0.00023 2e-05 0.00016 27.86879 -16.81618 -3.5555 45.38507 -0.7476 -6.26087 -15.00757 3.10947 -1.27351 -23.96182 -6.04422 -3.3102 27.09485 74.57379 3.4228 -1.99222 -25.8055 7.15283 -0.19888 33.45432 -88.18934 11.12929 1.10362 28.23412 -2.20142 -4.67541 -20.2803 -6.71782 -3.75058 -4.06101 32.89069 6.16602 9.08136 -24.17167 -6.52355 1.63261 2.99693
-0.00084 -0.0001 0.00021 27.88351 -16.91006 -3.5633 45.30971 -0.72671 -6.37101 -14.82108 3.10474 -1.27436 -23.71365 -5.53686 -5.69083 26.90637 81.75517 5.25888 -0.7699 -25.68115 6.76329 1.0536 33.31385 -93.97259 12.98483 0.10008 28.39237 -2.22676 -4.68837 -20.29173 -6.71942 -3.7508 -4.0609 33.05874 6.13951 9.07486 -24.18623 -6.52749 1.62499 2.99798
-0.00146 -0.00022 0.00026 27.89817 -17.00421 -3.57112 45.23427 -0.70573 -6.48128 -14.63405 3.09999 -1.27521 -23.46438 -5.02717 -8.08204 26.71705 88.97208 7.10404 0.45848 -25.55633 6.37186 2.31217 33.17281 -99.78468 14.84966 -0.90845 28.55104 -2.25197 -4.70036 -20.30309 -6.7211 -3.7511 -4.06083 33.2272 6.113 9.06871 -24.20078 -6.53145 1.61733 2.99902
-0.00207 -0.00034 0.00031 27.91319 -17.09753 -3.57883 45.15884 -0.68502 -6.59157 -14.44863 3.09524 -1.27606 -23.21921 -4.526 -10.43495 26.5308 96.05622 8.91526 1.66424 -25.43317 5.98732 3.54846 33.03379 -105.49066 16.68032 -1.89862 28.70847 -2.278 -4.7171 -20.31487 -6.72235 -3.75104 -4.06055 33.39453 6.0862 9.06048 -24.21544 -6.53534 1.6099 3.00013
-0.00268 -0.00046 0.00036 27.92747 -17.19241 -3.58676 45.08345 -0.6638 -6.70169 -14.26016 3.09052 -1.27691 -22.96604 -4.0084 -12.8616 26.3386 103.39693 10.79205 2.9137 -25.30681 5.58957 4.82747 32.8909 -111.40018 18.5765 -2.92403 28.86825 -2.30238 -4.72438 -20.3258 -6.72447 -3.7517 -4.06068 33.56399 6.06008 9.05667 -24.22986 -6.53937 1.60198 3.0011
-0.00329 -0.00058 0.00041 27.94245 -17.28585 -3.59448 45.00806 -0.64304 -6.81198 -14.07453 3.08575 -1.27776 -22.72025 -3.50566 -15.22158 26.15187 110.50609 12.6097 4.12371 -25.18339 5.20357 6.06847 32.75148 -117.1287 20.41445 -3.91805 29.02581 -2.32823 -4.74016 -20.33749 -6.72581 -3.75171 -4.06045 33.73144 6.03324 9.04836 -24.24449 -6.54327 1.59456 3.00222
-0.0039 -0.0007 0.00046 27.95822 -17.37758 -3.60196 44.93244 -0.62287 -6.92251 -13.8922 3.08097 -1.27861 -22.48345 -3.0221 -17.49539 25.97185 117.31355 14.35018 5.28237 -25.06355 4.83358 7.25778 32.61665 -122.61055 22.1729 -4.86951 29.18095 -2.35609 -4.76738 -20.35024 -6.7261 -3.75083 -4.05973 33.8967 6.00586 9.03614 -24.25945 -6.547 1.58754 3.00345
-0.00453 -0.00082 0.00051 27.96923 -17.47933 -3.61088 44.85747 -0.59942 -7.03175 -13.69035 3.07644 -1.27948 -22.19483 -2.43127 -20.25096 25.75329 125.80081 16.52 6.72711 -24.92305 4.37642 8.7288 32.45645 -129.43524 24.36377 -6.05325 29.35091 -2.37302 -4.73192 -20.35729 -6.73213 -3.7548 -4.06166 34.07534 5.9826 9.05122 -24.27275 -6.55168 1.57759 3.00379
-0.0051 -0.00094 0.00057 27.99042 -17.55981 -3.61672 44.78159 -0.58282 -7.14363 -13.53003 3.07125 -1.28029 -22.01561 -2.06474 -21.99915 25.61597 130.78032 17.79346 7.57434 -24.82618 4.10001 9.61553 32.34914 -133.47597 25.65842 -6.75504 29.48899 -2.4126 -4.82664 -20.37611 -6.72625 -3.74872 -4.05811 34.22523 5.95 9.00568 -24.28939 -6.55437 1.57421 3.00618
-0.00553 -0.00112 0.00069 28.03859 -17.58245 -3.61442 44.69947 -0.58558 -7.26341 -13.48216 3.06542 -1.28093 -22.13913 -2.33646 -20.88066 25.70447 125.73648 16.50406 6.71509 -24.85011 4.35119 8.79759 32.39389 -129.38248 24.33193 -6.05208 29.54384 -2.51847 -5.29963 -20.42952 -6.68561 -3.71317 -4.03853 34.29981 5.89733 8.81828 -24.31648 -6.55153 1.58584 3.01279
-0.00589 -0.0013 0.00083 28.09707 -17.5837 -3.60894 44.61725 -0.59512 -7.38558 -13.47631 3.05874 -1.28151 -22.37223 -2.82929 -18.76923 25.87413 117.24206 14.33317 5.26794 -24.91773 4.77859 7.40994 32.49064 -122.57523 22.13217 -4.87886 29.5659 -2.64632 -5.89971 -20.49432 -6.63336 -3.66785 -4.01362 34.34485 5.83454 8.56658 -24.34667 -6.54671 1.60451 3.02167
-0.00627 -0.00148 0.00096 28.15151 -17.59434 -3.60472 44.53737 -0.60121 -7.50638 -13.45218 3.05168 -1.28212 -22.55328 -3.20597 -17.1795 26.00457 110.58897 12.63373 4.13383 -24.96453 5.10395 6.35146 32.55884 -117.34561 20.44195 -3.97656 29.6002 -2.76141 -6.4276 -20.55242 -6.58782 -3.62823 -3.99181 34.40112 5.77234 8.3269 -24.37459 -6.54287 1.62209 3.03051
-0.00673 -0.00168 0.00112 28.20351 -17.60612 -3.60133 44.44734 -0.60887 -7.62892 -13.42457 3.04778 -1.2827 -22.74326 -3.64885 -15.29186 26.1445 102.78384 10.63563 2.80609 -25.01512 5.51994 5.00255 32.64716 -110.69775 18.28798 -2.83825 29.64563 -2.88826 -7.01567 -20.61699 -6.53634 -3.58334 -3.96717 34.46668 5.72579 8.15515 -24.4062 -6.53869 1.63127 3.03542
-0.00698 -0.00183 0.00122 28.26271 -17.61073 -3.59542 44.37899 -0.61487 -7.74773 -13.41432 3.03719 -1.28334 -22.94163 -4.0067 -13.78745 26.28459 96.55001 9.04783 1.74082 -25.06865 5.79193 4.1143 32.70683 -106.30927 16.87575 -2.07192 29.66014 -2.99583 -7.50978 -20.67075 -6.49431 -3.54701 -3.94709 34.50577 5.64581 7.8324 -24.43081 -6.53474 1.65899 3.04874
